<svg width="40" height="40" viewBox="0 0 40 40" fill="none" xmlns="http://www.w3.org/2000/svg">
<g clip-path="url(#clip0_952_1687)">
<path d="M11.6668 31.6667C13.5078 31.6667 15.0002 30.1743 15.0002 28.3333C15.0002 26.4924 13.5078 25 11.6668 25C9.82588 25 8.3335 26.4924 8.3335 28.3333C8.3335 30.1743 9.82588 31.6667 11.6668 31.6667Z" stroke="black" stroke-width="2" stroke-linecap="round" stroke-linejoin="round"/>
<path d="M28.3333 31.6667C30.1743 31.6667 31.6667 30.1743 31.6667 28.3333C31.6667 26.4924 30.1743 25 28.3333 25C26.4924 25 25 26.4924 25 28.3333C25 30.1743 26.4924 31.6667 28.3333 31.6667Z" stroke="black" stroke-width="2" stroke-linecap="round" stroke-linejoin="round"/>
<path d="M8.3335 28.3335H7.00016C5.89559 28.3335 5.00016 27.4381 5.00016 26.3335V21.6668M3.3335 8.3335H19.6668C20.7714 8.3335 21.6668 9.22893 21.6668 10.3335V28.3335M15.0002 28.3335H25.0002M31.6668 28.3335H33.0002C34.1047 28.3335 35.0002 27.4381 35.0002 26.3335V18.3335M35.0002 18.3335H21.6668M35.0002 18.3335L30.5828 10.9712C30.2213 10.3688 29.5703 10.0002 28.8678 10.0002H21.6668" stroke="black" stroke-width="2" stroke-linecap="round" stroke-linejoin="round"/>
<path d="M8 28H6.66667C5.5621 28 4.66667 27.1046 4.66667 26V21.3333M3 8H19.3333C20.4379 8 21.3333 8.89543 21.3333 10V28M15 28H24.6667M32 28H32.6667C33.7712 28 34.6667 27.1046 34.6667 26V18M34.6667 18H21.3333M34.6667 18L30.2493 10.6377C29.8878 10.0353 29.2368 9.66667 28.5343 9.66667H21.3333" stroke="black" stroke-width="2" stroke-linecap="round" stroke-linejoin="round"/>
<path d="M5 11.8182H11.6667" stroke="black" stroke-width="2" stroke-linecap="round" stroke-linejoin="round"/>
<path d="M1.81836 15.4546H8.48503" stroke="black" stroke-width="2" stroke-linecap="round" stroke-linejoin="round"/>
<path d="M5 19.0909H11.6667" stroke="black" stroke-width="2" stroke-linecap="round" stroke-linejoin="round"/>
</g>
<defs>
<clipPath id="clip0_952_1687">
<rect width="40" height="40" fill="white"/>
</clipPath>
</defs>
</svg>
