<svg width="40" height="40" viewBox="0 0 40 40" fill="none" xmlns="http://www.w3.org/2000/svg">
<g clip-path="url(#clip0_952_1700)">
<path d="M33.3332 18.3333C32.9256 15.4004 31.565 12.6828 29.4609 10.5991C27.3569 8.51554 24.6261 7.18152 21.6893 6.80258C18.7525 6.42363 15.7725 7.02079 13.2085 8.50206C10.6445 9.98334 8.63859 12.2665 7.49984 15M6.6665 8.33332V15H13.3332" stroke="black" stroke-width="2" stroke-linecap="round" stroke-linejoin="round"/>
<path d="M6.6665 21.6667C7.0741 24.5996 8.43472 27.3172 10.5388 29.4008C12.6428 31.4844 15.3736 32.8185 18.3104 33.1974C21.2472 33.5763 24.2271 32.9792 26.7912 31.4979C29.3552 30.0166 31.3611 27.7334 32.4998 25M33.3332 31.6667V25H26.6665" stroke="black" stroke-width="2" stroke-linecap="round" stroke-linejoin="round"/>
</g>
<defs>
<clipPath id="clip0_952_1700">
<rect width="40" height="40" fill="white"/>
</clipPath>
</defs>
</svg>
