<svg width="80" height="80" viewBox="0 0 80 80" fill="none" xmlns="http://www.w3.org/2000/svg">
<path opacity="0.3" d="M80 40C80 62.0914 62.0914 80 40 80C17.9086 80 0 62.0914 0 40C0 17.9086 17.9086 0 40 0C62.0914 0 80 17.9086 80 40ZM10.9071 40C10.9071 56.0675 23.9325 69.0929 40 69.0929C56.0675 69.0929 69.0929 56.0675 69.0929 40C69.0929 23.9325 56.0675 10.9071 40 10.9071C23.9325 10.9071 10.9071 23.9325 10.9071 40Z" fill="#2F2E30"/>
<circle cx="40" cy="40" r="29" fill="black"/>
<g clip-path="url(#clip0_952_4751)">
<path d="M33.3327 44.9998C33.3327 43.1589 31.8403 41.6665 29.9993 41.6665C28.1584 41.6665 26.666 43.1589 26.666 44.9998V48.3332C26.666 50.1741 28.1584 51.6665 29.9993 51.6665C31.8403 51.6665 33.3327 50.1741 33.3327 48.3332V44.9998Z" stroke="white" stroke-width="2" stroke-linecap="round" stroke-linejoin="round"/>
<path d="M53.3327 44.9998C53.3327 43.1589 51.8403 41.6665 49.9993 41.6665C48.1584 41.6665 46.666 43.1589 46.666 44.9998V48.3332C46.666 50.1741 48.1584 51.6665 49.9993 51.6665C51.8403 51.6665 53.3327 50.1741 53.3327 48.3332V44.9998Z" stroke="white" stroke-width="2" stroke-linecap="round" stroke-linejoin="round"/>
<path d="M26.666 44.9998V39.9998C26.666 36.4636 28.0708 33.0722 30.5713 30.5717C33.0717 28.0713 36.4631 26.6665 39.9993 26.6665C43.5356 26.6665 46.927 28.0713 49.4274 30.5717C51.9279 33.0722 53.3327 36.4636 53.3327 39.9998V44.9998" stroke="white" stroke-width="2" stroke-linecap="round" stroke-linejoin="round"/>
<path d="M50 51.6665C50 52.9926 48.9464 54.2644 47.0711 55.202C45.1957 56.1397 42.6522 56.6665 40 56.6665" stroke="white" stroke-width="2" stroke-linecap="round" stroke-linejoin="round"/>
</g>
<defs>
<clipPath id="clip0_952_4751">
<rect width="40" height="40" fill="white" transform="translate(20 20)"/>
</clipPath>
</defs>
</svg>
