<svg width="80" height="80" viewBox="0 0 80 80" fill="none" xmlns="http://www.w3.org/2000/svg">
<path opacity="0.3" d="M80 40C80 62.0914 62.0914 80 40 80C17.9086 80 0 62.0914 0 40C0 17.9086 17.9086 0 40 0C62.0914 0 80 17.9086 80 40ZM10.9071 40C10.9071 56.0675 23.9325 69.0929 40 69.0929C56.0675 69.0929 69.0929 56.0675 69.0929 40C69.0929 23.9325 56.0675 10.9071 40 10.9071C23.9325 10.9071 10.9071 23.9325 10.9071 40Z" fill="#2F2E30"/>
<circle cx="40" cy="40" r="29" fill="black"/>
<path d="M28.0985 50.5992L28.0982 50.5991C27.2255 49.9483 26.4249 48.9206 25.8421 47.759C25.2592 46.5973 24.916 45.3451 24.916 44.2666V31.8666C24.916 29.5074 26.6708 26.9618 28.8905 26.1351L28.8915 26.1348L37.2077 23.0183C37.2078 23.0182 37.2079 23.0182 37.208 23.0182C37.9615 22.7366 38.9609 22.5874 39.9827 22.5874C41.0044 22.5874 42.0039 22.7366 42.7574 23.0182C42.7575 23.0182 42.7576 23.0182 42.7576 23.0183L51.0739 26.1348L51.0749 26.1351C53.2945 26.9618 55.0493 29.5074 55.0493 31.8666V44.2499C55.0493 45.3371 54.706 46.5892 54.1234 47.7483C53.5409 48.9073 52.7404 49.9313 51.8671 50.5824L51.8669 50.5826L44.7002 55.9326L44.7002 55.9325L44.694 55.9373C43.4113 56.9264 41.7234 57.4332 39.9993 57.4332C38.2767 57.4332 36.5845 56.927 35.2642 55.9486C35.2641 55.9484 35.2639 55.9483 35.2637 55.9482L28.0985 50.5992ZM37.7412 24.4315L37.7406 24.4317L29.4239 27.5484L29.4232 27.5486C28.5956 27.8602 27.8544 28.5225 27.3235 29.2906C26.7924 30.059 26.4327 30.9898 26.4327 31.8832V44.2666C26.4327 45.161 26.7433 46.1892 27.2003 47.101C27.6571 48.0126 28.2926 48.8722 29.0002 49.4005L29.0002 49.4006L36.1666 54.7503C37.2286 55.5445 38.6276 55.9249 40.0014 55.9249C41.3754 55.9249 42.7776 55.5445 43.8471 54.7516L43.8485 54.7506L51.0151 49.4006L51.016 49.3999C51.7308 48.8638 52.3662 48.005 52.8216 47.0943C53.2769 46.1837 53.5827 45.16 53.5827 44.2666V31.8666C53.5827 30.9804 53.2223 30.0538 52.6919 29.2864C52.1614 28.5189 51.4216 27.854 50.597 27.5338L50.597 27.5338L50.5915 27.5317L42.2748 24.415L42.2748 24.4149L42.2658 24.4117C41.6276 24.1865 40.7995 24.0831 40.0001 24.0853C39.2014 24.0875 38.3745 24.1951 37.7412 24.4315Z" fill="#FAFAFA" stroke="#FAFAFA"/>
<path d="M37.4135 41.0536L37.7671 41.4071L38.1206 41.0536L44.4039 34.7703C44.692 34.4822 45.1754 34.4822 45.4635 34.7703C45.7516 35.0583 45.7516 35.5417 45.4635 35.8298L38.2968 42.9965C38.1455 43.1478 37.9583 43.2167 37.7671 43.2167C37.5758 43.2167 37.3886 43.1478 37.2373 42.9965L34.5539 40.3131C34.2659 40.0251 34.2659 39.5417 34.5539 39.2536C34.842 38.9655 35.3254 38.9655 35.6135 39.2536L37.4135 41.0536Z" fill="#FAFAFA" stroke="#FAFAFA"/>
</svg>
